<svg xmlns="http://www.w3.org/2000/svg" width="1200" height="630" viewBox="0 0 1200 630">
  <defs>
    <linearGradient id="bg" x1="0" y1="0" x2="1" y2="1">
      <stop offset="0" stop-color="#fdf7ea"/><stop offset="1" stop-color="#f1e6cf"/>
    </linearGradient>
    <linearGradient id="gold" x1="0" y1="0" x2="1" y2="0">
      <stop offset="0" stop-color="#8a6526"/><stop offset=".5" stop-color="#e3c483"/><stop offset="1" stop-color="#8a6526"/>
    </linearGradient>
  </defs>
  <rect width="1200" height="630" fill="url(#bg)"/>
  <rect x="24" y="24" width="1152" height="582" rx="18" fill="none" stroke="url(#gold)" stroke-width="3"/>
  <g transform="translate(600,196)" fill="none" stroke="#b8893f" stroke-width="4" stroke-linejoin="round" stroke-linecap="round">
    <path d="M0,-70c12,40 12,72 0,108 -12,-36 -12,-68 0,-108Z"/>
    <path d="M0,38c-28,-20 -42,-48 -48,-84 32,12 48,36 48,84Z"/>
    <path d="M0,38c28,-20 42,-48 48,-84 -32,12 -48,36 -48,84Z"/>
    <path d="M0,44c-36,0 -64,-16 -84,-44 36,-8 72,4 84,44Z"/>
    <path d="M0,44c36,0 64,-16 84,-44 -36,-8 -72,4 -84,44Z"/>
    <path d="M-72,60q72,36 144,0"/>
  </g>
  <text x="600" y="330" text-anchor="middle" font-family="Georgia, serif" font-size="34" letter-spacing="14" fill="#7d7060">T H E</text>
  <text x="600" y="408" text-anchor="middle" font-family="Georgia, serif" font-weight="bold" font-size="92" fill="#241d16">Invyte <tspan fill="#8a6526">Co.</tspan></text>
  <text x="600" y="468" text-anchor="middle" font-family="Georgia, serif" font-size="34" fill="#6a0f1c">Luxury Digital Wedding Invitations</text>
  <text x="600" y="528" text-anchor="middle" font-family="Arial, sans-serif" font-size="24" letter-spacing="2" fill="#7d7060">Royal animated e-invites · from ₹999 · ready in 24–48 hrs</text>
</svg>
